<svg xmlns="http://www.w3.org/2000/svg" width="256" height="256" viewBox="0 0 100 100">
    <rect width="100" height="100" rx="20" fill="#323437" data-darkreader-inline-fill="" style="--darkreader-inline-fill: #352b82;"></rect>
    <path d="M39.46 50.58L34.16 55.13L45.92 66.56Q45.58 69.41 44.19 70.94Q42.79 72.47 40.21 72.47L40.21 72.47Q38.24 72.47 36.74 71.52Q35.24 70.57 33.41 68.39L33.41 68.39L25.32 58.81L25.32 71.86Q24.64 72.07 23.41 72.24Q22.19 72.41 20.69 72.41L20.69
        72.41Q17.63 72.41 16.27 71.42Q14.91 70.43 14.91 67.58L14.91 67.58L14.91 27.66Q15.66 27.46 16.88 27.25Q18.11 27.05 19.60 27.05L19.60 27.05Q22.66 27.05 23.99 28.07Q25.32 29.09 25.32 31.95L25.32 31.95L25.32 51.19L37.62 38.68Q40.82 38.68 42.72 40.11Q44.63
        41.53 44.63 43.64L44.63 43.64Q44.63 45.48 43.37 46.87Q42.11 48.27 39.46 50.58L39.46 50.58ZM69.18 38.20L69.18 38.20Q72.51 38.20 75.43 39.29Q78.36 40.38 80.50 42.55Q82.64 44.73 83.86 47.96Q85.09 51.19 85.09 55.47L85.09 55.47Q85.09 59.76 83.80 63.02Q82.50
        66.29 80.16 68.50Q77.81 70.71 74.51 71.83Q71.22 72.95 67.14 72.95L67.14 72.95Q62.85 72.95 59.79 71.93Q56.73 70.91 54.69 69.48L54.69 69.48Q51.77 67.51 51.77 64.31L51.77 64.31L51.77 27.66Q52.52 27.46 53.74 27.25Q54.96 27.05 56.46 27.05L56.46 27.05Q59.52
        27.05 60.85 28.07Q62.17 29.09 62.17 31.95L62.17 31.95L62.17 39.70Q63.53 39.09 65.30 38.64Q67.07 38.20 69.18 38.20ZM67.27 46.36L67.27 46.36Q65.71 46.36 64.45 46.80Q63.19 47.25 62.10 47.93L62.10 47.93L62.10 63.50Q62.92 64.04 64.14 64.38Q65.37 64.72
        67 64.72L67 64.72Q70.40 64.72 72.41 62.41Q74.41 60.10 74.41 55.47L74.41 55.47Q74.41 50.71 72.47 48.54Q70.54 46.36 67.27 46.36Z" fill="#e2b714" data-darkreader-inline-fill="" style="--darkreader-inline-fill: #2d2e2f;"></path>
    </svg>